<mxfile host="app.diagrams.net" modified="2023-10-05T14:16:35.641Z" agent="Mozilla/5.0 (X11; Linux x86_64; rv:109.0) Gecko/20100101 Firefox/118.0" etag="zUSyrdIudko59j0wK0lu" version="22.0.2" type="gitlab">
  <diagram name="Page-1" id="dy6WFGQS1IkAlNpA-Y_L">
    <mxGraphModel dx="1434" dy="790" grid="0" gridSize="10" guides="1" tooltips="1" connect="1" arrows="1" fold="1" page="1" pageScale="1" pageWidth="850" pageHeight="1100" background="#ffffff" math="0" shadow="0">
      <root>
        <mxCell id="0" />
        <mxCell id="1" parent="0" />
        <mxCell id="jb00Yiaz1OLwazMcfyk9-3" value="" style="edgeStyle=orthogonalEdgeStyle;orthogonalLoop=1;jettySize=auto;html=1;rounded=0;" parent="1" edge="1">
          <mxGeometry relative="1" as="geometry">
            <mxPoint x="250" y="384" as="targetPoint" />
            <mxPoint x="356" y="179" as="sourcePoint" />
            <Array as="points">
              <mxPoint x="251" y="179" />
            </Array>
          </mxGeometry>
        </mxCell>
        <mxCell id="jb00Yiaz1OLwazMcfyk9-5" value="" style="edgeStyle=orthogonalEdgeStyle;orthogonalLoop=1;jettySize=auto;html=1;rounded=0;" parent="1" source="jb00Yiaz1OLwazMcfyk9-1" target="jb00Yiaz1OLwazMcfyk9-4" edge="1">
          <mxGeometry relative="1" as="geometry" />
        </mxCell>
        <mxCell id="jb00Yiaz1OLwazMcfyk9-1" value="Computational task" style="rounded=1;whiteSpace=wrap;html=1;" parent="1" vertex="1">
          <mxGeometry x="296" y="135" width="270" height="60" as="geometry" />
        </mxCell>
        <mxCell id="jb00Yiaz1OLwazMcfyk9-4" value="Work to completion" style="whiteSpace=wrap;html=1;rounded=1;" parent="1" vertex="1">
          <mxGeometry x="440" y="370" width="210" height="60" as="geometry" />
        </mxCell>
        <mxCell id="jb00Yiaz1OLwazMcfyk9-8" value="&lt;font style=&quot;font-size: 36px;&quot;&gt;Spot&lt;/font&gt;" style="text;strokeColor=none;align=center;fillColor=none;html=1;verticalAlign=middle;whiteSpace=wrap;rounded=0;" parent="1" vertex="1">
          <mxGeometry x="17" y="140" width="170" height="80" as="geometry" />
        </mxCell>
        <mxCell id="jb00Yiaz1OLwazMcfyk9-9" value="&lt;font style=&quot;font-size: 36px;&quot;&gt;Reserved&lt;/font&gt;" style="text;strokeColor=none;align=center;fillColor=none;html=1;verticalAlign=middle;whiteSpace=wrap;rounded=0;" parent="1" vertex="1">
          <mxGeometry x="590" y="177.5" width="160" height="42.5" as="geometry" />
        </mxCell>
        <mxCell id="fCD_O_br2NG6E55Pg9a1-1" value="" style="edgeStyle=orthogonalEdgeStyle;rounded=0;orthogonalLoop=1;jettySize=auto;html=1;noEdgeStyle=1;" parent="1" source="fCD_O_br2NG6E55Pg9a1-2" edge="1">
          <mxGeometry relative="1" as="geometry">
            <mxPoint x="367.6822033898304" y="607" as="targetPoint" />
          </mxGeometry>
        </mxCell>
        <mxCell id="fCD_O_br2NG6E55Pg9a1-2" value="Re/start" style="rounded=1;whiteSpace=wrap;html=1;" parent="1" vertex="1">
          <mxGeometry x="215" y="384" width="150" height="70" as="geometry" />
        </mxCell>
        <mxCell id="fCD_O_br2NG6E55Pg9a1-3" value="" style="edgeStyle=orthogonalEdgeStyle;rounded=0;orthogonalLoop=1;jettySize=auto;html=1;noEdgeStyle=1;" parent="1" edge="1">
          <mxGeometry relative="1" as="geometry">
            <mxPoint x="313" y="641.2937853107344" as="sourcePoint" />
            <mxPoint x="205" y="640.276836158192" as="targetPoint" />
          </mxGeometry>
        </mxCell>
        <mxCell id="fCD_O_br2NG6E55Pg9a1-4" value="Cache at each milestone" style="rounded=1;whiteSpace=wrap;html=1;" parent="1" vertex="1">
          <mxGeometry x="312" y="607" width="150" height="70" as="geometry" />
        </mxCell>
        <mxCell id="fCD_O_br2NG6E55Pg9a1-5" value="Interruption" style="whiteSpace=wrap;html=1;rounded=1;" parent="1" vertex="1">
          <mxGeometry x="39" y="607" width="165" height="65" as="geometry" />
        </mxCell>
        <mxCell id="fCD_O_br2NG6E55Pg9a1-6" value="" style="endArrow=classic;html=1;rounded=0;exitX=0.5;exitY=0;exitDx=0;exitDy=0;entryX=0.38;entryY=1;entryDx=0;entryDy=0;entryPerimeter=0;" parent="1" target="fCD_O_br2NG6E55Pg9a1-2" edge="1">
          <mxGeometry width="50" height="50" relative="1" as="geometry">
            <mxPoint x="122.5" y="607" as="sourcePoint" />
            <mxPoint x="266" y="591" as="targetPoint" />
          </mxGeometry>
        </mxCell>
        <mxCell id="fCD_O_br2NG6E55Pg9a1-7" value="" style="shape=flexArrow;endArrow=classic;html=1;rounded=0;" parent="1" edge="1">
          <mxGeometry width="50" height="50" relative="1" as="geometry">
            <mxPoint x="253" y="640" as="sourcePoint" />
            <mxPoint x="253" y="800" as="targetPoint" />
          </mxGeometry>
        </mxCell>
        <mxCell id="fCD_O_br2NG6E55Pg9a1-8" value="Completion" style="rounded=1;whiteSpace=wrap;html=1;" parent="1" vertex="1">
          <mxGeometry x="140" y="800" width="220" height="90" as="geometry" />
        </mxCell>
        <mxCell id="I7qOnwvLvmoF_OgGYx-I-1" value="" style="verticalLabelPosition=bottom;verticalAlign=top;html=1;shape=mxgraph.basic.tick;fillColor=#33E85D;strokeColor=#82b366;" vertex="1" parent="1">
          <mxGeometry x="187" y="906" width="85" height="100" as="geometry" />
        </mxCell>
        <mxCell id="I7qOnwvLvmoF_OgGYx-I-2" value="" style="verticalLabelPosition=bottom;verticalAlign=top;html=1;shape=mxgraph.basic.tick;fillColor=#1EE832;strokeColor=#82b366;" vertex="1" parent="1">
          <mxGeometry x="283" y="906" width="85" height="100" as="geometry" />
        </mxCell>
        <mxCell id="I7qOnwvLvmoF_OgGYx-I-3" value="" style="verticalLabelPosition=bottom;verticalAlign=top;html=1;shape=mxgraph.basic.tick;fillColor=#36E82A;strokeColor=#82b366;" vertex="1" parent="1">
          <mxGeometry x="700" y="488" width="85" height="100" as="geometry" />
        </mxCell>
        <mxCell id="I7qOnwvLvmoF_OgGYx-I-4" value="" style="verticalLabelPosition=bottom;verticalAlign=top;html=1;shape=mxgraph.basic.x;fillColor=#F8846D;strokeColor=#b85450;" vertex="1" parent="1">
          <mxGeometry x="530" y="485" width="100" height="100" as="geometry" />
        </mxCell>
        <mxCell id="I7qOnwvLvmoF_OgGYx-I-7" value="" style="shape=table;startSize=0;container=1;collapsible=0;childLayout=tableLayout;" vertex="1" parent="1">
          <mxGeometry x="563" y="625" width="249" height="120" as="geometry" />
        </mxCell>
        <mxCell id="I7qOnwvLvmoF_OgGYx-I-8" value="" style="shape=tableRow;horizontal=0;startSize=0;swimlaneHead=0;swimlaneBody=0;strokeColor=inherit;top=0;left=0;bottom=0;right=0;collapsible=0;dropTarget=0;fillColor=none;points=[[0,0.5],[1,0.5]];portConstraint=eastwest;" vertex="1" parent="I7qOnwvLvmoF_OgGYx-I-7">
          <mxGeometry width="249" height="40" as="geometry" />
        </mxCell>
        <mxCell id="I7qOnwvLvmoF_OgGYx-I-9" value="Pros" style="shape=partialRectangle;html=1;whiteSpace=wrap;connectable=0;strokeColor=inherit;overflow=hidden;fillColor=none;top=0;left=0;bottom=0;right=0;pointerEvents=1;" vertex="1" parent="I7qOnwvLvmoF_OgGYx-I-8">
          <mxGeometry width="125" height="40" as="geometry">
            <mxRectangle width="125" height="40" as="alternateBounds" />
          </mxGeometry>
        </mxCell>
        <mxCell id="I7qOnwvLvmoF_OgGYx-I-10" value="Cons" style="shape=partialRectangle;html=1;whiteSpace=wrap;connectable=0;strokeColor=inherit;overflow=hidden;fillColor=none;top=0;left=0;bottom=0;right=0;pointerEvents=1;" vertex="1" parent="I7qOnwvLvmoF_OgGYx-I-8">
          <mxGeometry x="125" width="124" height="40" as="geometry">
            <mxRectangle width="124" height="40" as="alternateBounds" />
          </mxGeometry>
        </mxCell>
        <mxCell id="I7qOnwvLvmoF_OgGYx-I-11" value="" style="shape=tableRow;horizontal=0;startSize=0;swimlaneHead=0;swimlaneBody=0;strokeColor=inherit;top=0;left=0;bottom=0;right=0;collapsible=0;dropTarget=0;fillColor=none;points=[[0,0.5],[1,0.5]];portConstraint=eastwest;" vertex="1" parent="I7qOnwvLvmoF_OgGYx-I-7">
          <mxGeometry y="40" width="249" height="40" as="geometry" />
        </mxCell>
        <mxCell id="I7qOnwvLvmoF_OgGYx-I-12" value="Easier to code" style="shape=partialRectangle;html=1;whiteSpace=wrap;connectable=0;strokeColor=inherit;overflow=hidden;fillColor=none;top=0;left=0;bottom=0;right=0;pointerEvents=1;" vertex="1" parent="I7qOnwvLvmoF_OgGYx-I-11">
          <mxGeometry width="125" height="40" as="geometry">
            <mxRectangle width="125" height="40" as="alternateBounds" />
          </mxGeometry>
        </mxCell>
        <mxCell id="I7qOnwvLvmoF_OgGYx-I-13" value="Only works with reserved instances" style="shape=partialRectangle;html=1;whiteSpace=wrap;connectable=0;strokeColor=inherit;overflow=hidden;fillColor=none;top=0;left=0;bottom=0;right=0;pointerEvents=1;" vertex="1" parent="I7qOnwvLvmoF_OgGYx-I-11">
          <mxGeometry x="125" width="124" height="40" as="geometry">
            <mxRectangle width="124" height="40" as="alternateBounds" />
          </mxGeometry>
        </mxCell>
        <mxCell id="I7qOnwvLvmoF_OgGYx-I-17" style="shape=tableRow;horizontal=0;startSize=0;swimlaneHead=0;swimlaneBody=0;strokeColor=inherit;top=0;left=0;bottom=0;right=0;collapsible=0;dropTarget=0;fillColor=none;points=[[0,0.5],[1,0.5]];portConstraint=eastwest;" vertex="1" parent="I7qOnwvLvmoF_OgGYx-I-7">
          <mxGeometry y="80" width="249" height="40" as="geometry" />
        </mxCell>
        <mxCell id="I7qOnwvLvmoF_OgGYx-I-18" value="Intuitive data structures" style="shape=partialRectangle;html=1;whiteSpace=wrap;connectable=0;strokeColor=inherit;overflow=hidden;fillColor=none;top=0;left=0;bottom=0;right=0;pointerEvents=1;" vertex="1" parent="I7qOnwvLvmoF_OgGYx-I-17">
          <mxGeometry width="125" height="40" as="geometry">
            <mxRectangle width="125" height="40" as="alternateBounds" />
          </mxGeometry>
        </mxCell>
        <mxCell id="I7qOnwvLvmoF_OgGYx-I-19" value="Expensive" style="shape=partialRectangle;html=1;whiteSpace=wrap;connectable=0;strokeColor=inherit;overflow=hidden;fillColor=none;top=0;left=0;bottom=0;right=0;pointerEvents=1;" vertex="1" parent="I7qOnwvLvmoF_OgGYx-I-17">
          <mxGeometry x="125" width="124" height="40" as="geometry">
            <mxRectangle width="124" height="40" as="alternateBounds" />
          </mxGeometry>
        </mxCell>
        <mxCell id="I7qOnwvLvmoF_OgGYx-I-20" value="" style="shape=table;startSize=0;container=1;collapsible=0;childLayout=tableLayout;" vertex="1" parent="1">
          <mxGeometry x="432" y="857" width="243" height="127.75" as="geometry" />
        </mxCell>
        <mxCell id="I7qOnwvLvmoF_OgGYx-I-21" value="" style="shape=tableRow;horizontal=0;startSize=0;swimlaneHead=0;swimlaneBody=0;strokeColor=inherit;top=0;left=0;bottom=0;right=0;collapsible=0;dropTarget=0;fillColor=none;points=[[0,0.5],[1,0.5]];portConstraint=eastwest;" vertex="1" parent="I7qOnwvLvmoF_OgGYx-I-20">
          <mxGeometry width="243" height="40" as="geometry" />
        </mxCell>
        <mxCell id="I7qOnwvLvmoF_OgGYx-I-22" value="Pros" style="shape=partialRectangle;html=1;whiteSpace=wrap;connectable=0;strokeColor=inherit;overflow=hidden;fillColor=none;top=0;left=0;bottom=0;right=0;pointerEvents=1;" vertex="1" parent="I7qOnwvLvmoF_OgGYx-I-21">
          <mxGeometry width="122" height="40" as="geometry">
            <mxRectangle width="122" height="40" as="alternateBounds" />
          </mxGeometry>
        </mxCell>
        <mxCell id="I7qOnwvLvmoF_OgGYx-I-23" value="Cons" style="shape=partialRectangle;html=1;whiteSpace=wrap;connectable=0;strokeColor=inherit;overflow=hidden;fillColor=none;top=0;left=0;bottom=0;right=0;pointerEvents=1;" vertex="1" parent="I7qOnwvLvmoF_OgGYx-I-21">
          <mxGeometry x="122" width="121" height="40" as="geometry">
            <mxRectangle width="121" height="40" as="alternateBounds" />
          </mxGeometry>
        </mxCell>
        <mxCell id="I7qOnwvLvmoF_OgGYx-I-24" value="" style="shape=tableRow;horizontal=0;startSize=0;swimlaneHead=0;swimlaneBody=0;strokeColor=inherit;top=0;left=0;bottom=0;right=0;collapsible=0;dropTarget=0;fillColor=none;points=[[0,0.5],[1,0.5]];portConstraint=eastwest;" vertex="1" parent="I7qOnwvLvmoF_OgGYx-I-20">
          <mxGeometry y="40" width="243" height="48" as="geometry" />
        </mxCell>
        <mxCell id="I7qOnwvLvmoF_OgGYx-I-25" value="Works with spot and reserved" style="shape=partialRectangle;html=1;whiteSpace=wrap;connectable=0;strokeColor=inherit;overflow=hidden;fillColor=none;top=0;left=0;bottom=0;right=0;pointerEvents=1;" vertex="1" parent="I7qOnwvLvmoF_OgGYx-I-24">
          <mxGeometry width="122" height="48" as="geometry">
            <mxRectangle width="122" height="48" as="alternateBounds" />
          </mxGeometry>
        </mxCell>
        <mxCell id="I7qOnwvLvmoF_OgGYx-I-26" value="Harder to code" style="shape=partialRectangle;html=1;whiteSpace=wrap;connectable=0;strokeColor=inherit;overflow=hidden;fillColor=none;top=0;left=0;bottom=0;right=0;pointerEvents=1;" vertex="1" parent="I7qOnwvLvmoF_OgGYx-I-24">
          <mxGeometry x="122" width="121" height="48" as="geometry">
            <mxRectangle width="121" height="48" as="alternateBounds" />
          </mxGeometry>
        </mxCell>
        <mxCell id="I7qOnwvLvmoF_OgGYx-I-27" value="" style="shape=tableRow;horizontal=0;startSize=0;swimlaneHead=0;swimlaneBody=0;strokeColor=inherit;top=0;left=0;bottom=0;right=0;collapsible=0;dropTarget=0;fillColor=none;points=[[0,0.5],[1,0.5]];portConstraint=eastwest;" vertex="1" parent="I7qOnwvLvmoF_OgGYx-I-20">
          <mxGeometry y="88" width="243" height="40" as="geometry" />
        </mxCell>
        <mxCell id="I7qOnwvLvmoF_OgGYx-I-28" value="Dirt cheap" style="shape=partialRectangle;html=1;whiteSpace=wrap;connectable=0;strokeColor=inherit;overflow=hidden;fillColor=none;top=0;left=0;bottom=0;right=0;pointerEvents=1;" vertex="1" parent="I7qOnwvLvmoF_OgGYx-I-27">
          <mxGeometry width="122" height="40" as="geometry">
            <mxRectangle width="122" height="40" as="alternateBounds" />
          </mxGeometry>
        </mxCell>
        <mxCell id="I7qOnwvLvmoF_OgGYx-I-29" value="Data strurctures require more work" style="shape=partialRectangle;html=1;whiteSpace=wrap;connectable=0;strokeColor=inherit;overflow=hidden;fillColor=none;top=0;left=0;bottom=0;right=0;pointerEvents=1;" vertex="1" parent="I7qOnwvLvmoF_OgGYx-I-27">
          <mxGeometry x="122" width="121" height="40" as="geometry">
            <mxRectangle width="121" height="40" as="alternateBounds" />
          </mxGeometry>
        </mxCell>
      </root>
    </mxGraphModel>
  </diagram>
</mxfile>
